<?xml version="1.0" standalone="no"?>
<!DOCTYPE svg PUBLIC "-//W3C//DTD SVG 20010904//EN"
 "http://www.w3.org/TR/2001/REC-SVG-20010904/DTD/svg10.dtd">
<svg version="1.0" xmlns="http://www.w3.org/2000/svg"
 width="1000.000000pt" height="882.000000pt" viewBox="0 0 1000.000000 882.000000"
 preserveAspectRatio="xMidYMid meet">

<g transform="translate(0.000000,882.000000) scale(0.100000,-0.100000)"
fill="#FFFF00" stroke="none">
<path d="M6105 8281 c-68 -56 -579 -460 -747 -591 -45 -35 -177 -140 -293
-231 -115 -92 -291 -230 -389 -307 l-180 -140 -138 -36 c-185 -48 -301 -92
-493 -186 -355 -173 -647 -407 -896 -715 l-89 -111 -187 -18 c-325 -30 -887
-86 -903 -90 -8 -2 300 -4 686 -5 l700 -1 73 85 c362 421 846 694 1401 789
l124 21 151 171 c82 94 287 325 455 514 591 664 807 911 798 909 -2 0 -34 -26
-73 -58z"/>
<path d="M5803 7362 c-106 -130 -301 -372 -435 -536 -134 -165 -331 -409 -438
-542 -107 -133 -274 -339 -370 -458 l-175 -215 -1095 -1 -1096 0 -204 -257
c-112 -142 -299 -377 -415 -523 -221 -278 -305 -386 -305 -392 0 -2 114 -5
253 -6 138 -2 253 -5 255 -6 1 -2 -57 -277 -128 -612 -72 -335 -133 -621 -136
-637 l-6 -27 1346 0 c967 0 1346 -3 1346 -11 0 -12 -63 -342 -245 -1274 -68
-346 -122 -631 -120 -633 1 -1 31 44 67 100 181 286 326 511 808 1258 122 190
265 414 318 498 53 83 99 152 102 152 3 0 16 -20 28 -45 l22 -45 1056 2 1057
3 100 170 c212 358 262 445 347 590 48 83 185 317 305 520 676 1145 685 1161
685 1169 0 4 -369 6 -820 6 -451 0 -820 -2 -820 -4 0 -3 60 -113 134 -245 73
-133 131 -241 127 -241 -3 0 -116 110 -251 245 l-245 245 -591 0 -591 0 -107
-107 c-59 -60 -105 -99 -102 -88 10 34 280 1131 412 1669 68 280 123 511 121
512 -2 2 -89 -103 -194 -234z m-439 -1227 c-112 -390 -204 -713 -204 -717 0
-5 27 -8 60 -8 38 0 60 -4 60 -11 0 -7 -36 -152 -80 -324 -44 -172 -80 -314
-80 -317 0 -3 60 56 133 131 72 75 216 223 319 329 l188 192 315 0 c173 0 315
-2 315 -4 0 -3 -231 -237 -513 -522 l-514 -518 289 -503 c158 -277 288 -506
288 -509 0 -2 -143 -4 -318 -4 l-318 0 -46 83 c-25 45 -93 169 -152 275 -58
106 -106 195 -106 197 0 2 -10 21 -22 41 l-22 38 -33 -150 c-18 -82 -32 -153
-33 -159 0 -6 28 -9 70 -7 48 3 70 0 70 -8 0 -12 3 -7 -237 -434 -96 -171
-272 -484 -391 -696 -221 -396 -249 -442 -232 -379 14 52 270 1179 270 1190 0
5 -34 9 -75 9 -41 0 -75 2 -75 5 0 3 11 56 25 118 14 62 67 312 119 557 52
245 124 582 160 750 36 168 88 413 116 545 28 132 54 250 57 263 5 21 3 22
-76 22 -45 0 -81 2 -81 5 0 3 78 105 173 228 95 122 195 251 222 287 135 179
558 721 560 718 2 -2 -88 -322 -201 -713z m-2668 -742 c-3 -10 -100 -463 -216
-1008 -116 -545 -213 -1000 -217 -1012 l-5 -23 -249 0 c-137 0 -249 4 -249 8
0 5 59 283 130 618 72 335 132 620 135 634 l5 25 -170 0 c-93 0 -170 3 -170 8
0 4 53 73 118 155 65 81 200 252 301 380 l183 232 205 0 c190 0 204 -1 199
-17z m1719 -142 c99 -121 129 -165 126 -183 -7 -53 -320 -1499 -326 -1508 -3
-5 -61 -54 -130 -109 l-124 -101 -628 0 -628 0 -130 160 c-72 88 -129 165
-128 172 2 7 73 339 158 738 86 399 159 737 162 753 4 20 39 54 137 132 l131
105 625 0 626 0 129 -159z m2402 -26 c68 -373 195 -1051 200 -1073 4 -18 30
18 135 190 72 117 172 281 223 363 51 83 145 235 209 339 l116 188 -60 68
c-33 37 -66 73 -75 80 -8 7 -15 16 -15 21 0 5 184 9 415 9 228 0 415 -2 415
-5 0 -3 -79 -139 -176 -303 -96 -163 -230 -389 -296 -502 -66 -113 -217 -369
-335 -570 -118 -201 -256 -436 -306 -522 l-92 -157 -302 -1 c-279 0 -302 1
-307 18 -2 9 -69 412 -147 895 l-143 878 135 135 134 134 120 -2 119 -3 33
-180z"/>
<path d="M3172 4798 c-63 -358 -164 -916 -169 -935 l-5 -23 401 0 c221 0 401
3 401 7 0 3 43 241 95 528 52 287 95 527 95 533 0 9 -96 12 -398 12 l-398 0
-22 -122z"/>
<path d="M6060 6513 c-67 -159 -128 -304 -135 -323 -7 -19 -43 -105 -80 -190
-78 -180 -86 -200 -81 -200 2 0 108 140 236 310 128 171 235 310 239 310 14 0
180 -115 268 -186 103 -82 282 -259 340 -335 l37 -49 1316 1 c723 1 1306 3
1295 5 -11 2 -267 19 -570 39 -302 20 -817 54 -1143 75 -325 22 -601 40 -611
40 -12 0 -45 32 -87 83 -173 209 -363 381 -585 528 -101 66 -297 179 -311 179
-3 0 -61 -129 -128 -287z"/>
<path d="M4725 6304 c-154 -162 -323 -337 -375 -389 l-95 -95 -385 -35 c-212
-19 -403 -36 -425 -38 -22 -2 165 -4 415 -5 l456 -2 95 118 c52 64 191 236
309 382 117 146 231 284 252 307 33 37 45 55 36 52 -2 0 -129 -133 -283 -295z"/>
<path d="M5126 2953 c-16 -26 -82 -138 -146 -248 -64 -110 -183 -310 -264
-445 -81 -134 -143 -241 -139 -236 4 4 49 63 98 131 228 313 348 478 445 608
l105 142 500 36 500 35 -300 7 c-165 4 -406 10 -535 13 l-235 6 -29 -49z"/>
<path d="M3879 2719 c-85 -127 -159 -234 -166 -236 -22 -9 -216 150 -355 290
l-136 137 -1369 -2 c-919 -1 -1327 -4 -1243 -10 69 -5 629 -43 1244 -84 l1119
-74 36 -43 c65 -77 245 -258 321 -321 110 -92 396 -286 421 -286 5 0 54 141
109 313 56 171 119 365 140 430 21 64 37 117 36 117 -1 0 -72 -104 -157 -231z"/>
<path d="M6730 2798 c-353 -373 -792 -608 -1305 -699 -112 -20 -164 -23 -377
-24 l-246 0 -110 -175 c-353 -562 -612 -976 -707 -1130 -60 -96 -126 -202
-148 -235 l-39 -60 74 75 c40 42 240 249 443 460 204 212 449 466 545 565
l175 180 55 2 c428 18 781 108 1143 290 334 169 621 400 862 695 l30 36 430
56 c237 31 457 60 490 65 37 5 -180 9 -575 9 l-635 0 -105 -110z"/>
</g>
</svg>
